<?xml version="1.0" encoding="utf-8" ?>
<svg baseProfile="full" height="300px" version="1.1" width="500px" xmlns="http://www.w3.org/2000/svg" xmlns:ev="http://www.w3.org/2001/xml-events" xmlns:xlink="http://www.w3.org/1999/xlink"><defs /><path d="M 385.25,142.5 C 377.45577136594005,155.5 371.75,180.2250092524069 365.0,214.0 L 353.75,220.5 L 342.5,142.5 C 346.40708399750594,78.48749605420647 383.6871664009976,116.8949984216826 385.25,142.5" stroke="rgb(0, 0, 0)" stroke-linecap="round" stroke-linejoin="round" stroke-width="60" /><path d="M 385.25,142.5 C 377.45577136594005,155.5 371.75,180.2250092524069 365.0,214.0 L 353.75,220.5 L 342.5,142.5 C 346.40708399750594,78.48749605420647 383.6871664009976,116.8949984216826 385.25,142.5" fill="rgb(120, 60, 60)" stroke="rgb(120, 60, 60)" stroke-linecap="round" stroke-linejoin="round" stroke-width="20" /><path d="M 385.25,142.5 C 377.45577136594005,155.5 371.75,180.2250092524069 365.0,214.0 L 353.75,220.5" fill="rgb(120, 60, 60)" stroke="rgb(45, 35, 35)" stroke-linecap="round" stroke-linejoin="round" stroke-width="10.0" /><path d="M 393.75,137.5 C 380.7596189432334,146.5 371.25,163.61731409782016 360.0,187.0 L 341.25,191.5 L 322.5,137.5 C 329.0118066625099,93.18365111445064 391.145277334996,119.77346044578026 393.75,137.5" stroke="rgb(0, 0, 0)" stroke-linecap="round" stroke-linejoin="round" stroke-width="60" /><path d="M 393.75,137.5 C 380.7596189432334,146.5 371.25,163.61731409782016 360.0,187.0 L 341.25,191.5 L 322.5,137.5 C 329.0118066625099,93.18365111445064 391.145277334996,119.77346044578026 393.75,137.5" fill="rgb(120, 60, 60)" stroke="rgb(120, 60, 60)" stroke-linecap="round" stroke-linejoin="round" stroke-width="20" /><path d="M 393.75,137.5 C 380.7596189432334,146.5 371.25,163.61731409782016 360.0,187.0 L 341.25,191.5" fill="rgb(120, 60, 60)" stroke="rgb(45, 35, 35)" stroke-linecap="round" stroke-linejoin="round" stroke-width="10.0" /><path d="M 406.25,122.5 C 384.59936490538905,127.5 368.75,137.00961894323342 350.0,150.0 L 318.75,152.5 L 287.5,122.5 C 298.3530111041831,97.8798061746948 401.90879555832674,112.65192246987792 406.25,122.5" stroke="rgb(0, 0, 0)" stroke-linecap="round" stroke-linejoin="round" stroke-width="60" /><path d="M 406.25,122.5 C 384.59936490538905,127.5 368.75,137.00961894323342 350.0,150.0 L 318.75,152.5 L 287.5,122.5 C 298.3530111041831,97.8798061746948 401.90879555832674,112.65192246987792 406.25,122.5" fill="rgb(120, 60, 60)" stroke="rgb(120, 60, 60)" stroke-linecap="round" stroke-linejoin="round" stroke-width="20" /><path d="M 406.25,122.5 C 384.59936490538905,127.5 368.75,137.00961894323342 350.0,150.0 L 318.75,152.5" fill="rgb(120, 60, 60)" stroke="rgb(45, 35, 35)" stroke-linecap="round" stroke-linejoin="round" stroke-width="10.0" /><path d="M 114.75,142.5 C 122.54422863405995,155.5 128.25,180.2250092524069 135.0,214.0 L 146.25,220.5 L 157.5,142.5 C 153.59291600249406,78.48749605420647 116.31283359900237,116.8949984216826 114.75,142.5" stroke="rgb(0, 0, 0)" stroke-linecap="round" stroke-linejoin="round" stroke-width="60" /><path d="M 114.75,142.5 C 122.54422863405995,155.5 128.25,180.2250092524069 135.0,214.0 L 146.25,220.5 L 157.5,142.5 C 153.59291600249406,78.48749605420647 116.31283359900237,116.8949984216826 114.75,142.5" fill="rgb(120, 60, 60)" stroke="rgb(120, 60, 60)" stroke-linecap="round" stroke-linejoin="round" stroke-width="20" /><path d="M 114.75,142.5 C 122.54422863405995,155.5 128.25,180.2250092524069 135.0,214.0 L 146.25,220.5" fill="rgb(120, 60, 60)" stroke="rgb(45, 35, 35)" stroke-linecap="round" stroke-linejoin="round" stroke-width="10.0" /><path d="M 106.25,137.5 C 119.24038105676658,146.5 128.75,163.61731409782016 140.0,187.0 L 158.75,191.5 L 177.5,137.5 C 170.9881933374901,93.18365111445064 108.85472266500395,119.77346044578026 106.25,137.5" stroke="rgb(0, 0, 0)" stroke-linecap="round" stroke-linejoin="round" stroke-width="60" /><path d="M 106.25,137.5 C 119.24038105676658,146.5 128.75,163.61731409782016 140.0,187.0 L 158.75,191.5 L 177.5,137.5 C 170.9881933374901,93.18365111445064 108.85472266500395,119.77346044578026 106.25,137.5" fill="rgb(120, 60, 60)" stroke="rgb(120, 60, 60)" stroke-linecap="round" stroke-linejoin="round" stroke-width="20" /><path d="M 106.25,137.5 C 119.24038105676658,146.5 128.75,163.61731409782016 140.0,187.0 L 158.75,191.5" fill="rgb(120, 60, 60)" stroke="rgb(45, 35, 35)" stroke-linecap="round" stroke-linejoin="round" stroke-width="10.0" /><path d="M 93.75,122.5 C 115.40063509461098,127.5 131.25,137.00961894323342 150.0,150.0 L 181.25,152.5 L 212.5,122.5 C 201.64698889581683,97.8798061746948 98.09120444167326,112.65192246987792 93.75,122.5" stroke="rgb(0, 0, 0)" stroke-linecap="round" stroke-linejoin="round" stroke-width="60" /><path d="M 93.75,122.5 C 115.40063509461098,127.5 131.25,137.00961894323342 150.0,150.0 L 181.25,152.5 L 212.5,122.5 C 201.64698889581683,97.8798061746948 98.09120444167326,112.65192246987792 93.75,122.5" fill="rgb(120, 60, 60)" stroke="rgb(120, 60, 60)" stroke-linecap="round" stroke-linejoin="round" stroke-width="20" /><path d="M 93.75,122.5 C 115.40063509461098,127.5 131.25,137.00961894323342 150.0,150.0 L 181.25,152.5" fill="rgb(120, 60, 60)" stroke="rgb(45, 35, 35)" stroke-linecap="round" stroke-linejoin="round" stroke-width="10.0" /></svg>