<?xml version="1.0" encoding="utf-8" ?>
<svg baseProfile="full" height="600px" version="1.1" width="600px" xmlns="http://www.w3.org/2000/svg" xmlns:ev="http://www.w3.org/2001/xml-events" xmlns:xlink="http://www.w3.org/1999/xlink"><defs /><path d="M 261.5,50.0 L 261.5,300.0 L 261.5,550.0" fill="none" stroke="rgb(0, 0, 0)" stroke-linejoin="round" stroke-width="20" /><path d="M 327.5,330.0L 327.5,270.0 C 358.5582854123025,154.0889008453118 272.5,80.0 272.5,50.0 C 272.5,50.0 272.5,50.0 272.5,50.0" fill="none" stroke="rgb(0, 0, 0)" stroke-linecap="round" stroke-linejoin="round" stroke-width="62" /><path d="M 327.5,270.0L 327.5,330.0 C 358.5582854123025,445.9110991546882 272.5,520.0 272.5,550.0 C 272.5,550.0 272.5,550.0 272.5,550.0" fill="none" stroke="rgb(0, 0, 0)" stroke-linecap="round" stroke-linejoin="round" stroke-width="62" /><path d="M 327.5,330.0L 327.5,270.0 C 358.5582854123025,154.0889008453118 272.5,80.0 272.5,50.0 C 272.5,50.0 272.5,50.0 272.5,50.0" fill="none" stroke="rgb(80, 80, 80)" stroke-linecap="round" stroke-width="22" /><path d="M 327.5,270.0L 327.5,330.0 C 358.5582854123025,445.9110991546882 272.5,520.0 272.5,550.0 C 272.5,550.0 272.5,550.0 272.5,550.0" fill="none" stroke="rgb(80, 80, 80)" stroke-linecap="round" stroke-width="22" /><path d="M 327.5,270.0 L 327.5,330.0" fill="none" stroke="rgb(170, 90, 70)" stroke-width="22" /></svg>