<?xml version="1.0" encoding="utf-8" ?>
<svg baseProfile="full" height="600px" version="1.1" width="1800px" xmlns="http://www.w3.org/2000/svg" xmlns:ev="http://www.w3.org/2001/xml-events" xmlns:xlink="http://www.w3.org/1999/xlink"><defs /><path d="M 200.0,100.0 L 200.0,300.0 L 200.0,500.0" fill="none" stroke="rgb(0, 0, 0)" stroke-linejoin="round" stroke-width="20" /><path d="M 200.0,100.0 L 209.39692620785908,103.4202014332567 C 350.3508193257453,154.723222932107 350.3508193257453,445.276777067893 209.39692620785908,496.5797985667433 L 200.0,500.0" fill="none" stroke="rgb(0, 0, 0)" stroke-linecap="round" stroke-width="70" /><path d="M 200.0,100.0 L 209.39692620785908,103.4202014332567 C 350.3508193257453,154.723222932107 350.3508193257453,445.276777067893 209.39692620785908,496.5797985667433 L 200.0,500.0" fill="none" stroke="rgb(220, 130, 75)" stroke-linecap="round" stroke-width="30" /><path d="M 825.0,107.5 L 775.0,300.0 L 825.0,492.5" fill="none" stroke="rgb(0, 0, 0)" stroke-linejoin="round" stroke-width="20" /><path d="M 825.0,107.5 L 834.5630475596304,110.42371704722737 C 984.7028942458269,156.32607468869705 984.7028942458269,443.673925311303 834.5630475596304,489.57628295277266 L 825.0,492.5" fill="none" stroke="rgb(0, 0, 0)" stroke-linecap="round" stroke-width="70" /><path d="M 825.0,107.5 L 834.5630475596304,110.42371704722737 C 984.7028942458269,156.32607468869705 984.7028942458269,443.673925311303 834.5630475596304,489.57628295277266 L 825.0,492.5" fill="none" stroke="rgb(220, 130, 75)" stroke-linecap="round" stroke-width="30" /><path d="M 1450.0,115.0 L 1350.0,300.0 L 1450.0,485.0" fill="none" stroke="rgb(0, 0, 0)" stroke-linejoin="round" stroke-width="20" /><path d="M 1450.0,115.0 L 1459.70295726276,117.41921895599668 C 1618.8314563720235,157.0944098343422 1618.8314563720235,442.9055901656578 1459.70295726276,482.58078104400334 L 1450.0,485.0" fill="none" stroke="rgb(0, 0, 0)" stroke-linecap="round" stroke-width="70" /><path d="M 1450.0,115.0 L 1459.70295726276,117.41921895599668 C 1618.8314563720235,157.0944098343422 1618.8314563720235,442.9055901656578 1459.70295726276,482.58078104400334 L 1450.0,485.0" fill="none" stroke="rgb(220, 130, 75)" stroke-linecap="round" stroke-width="30" /></svg>