<?xml version="1.0" encoding="utf-8" ?>
<svg baseProfile="full" height="600px" version="1.1" width="1800px" xmlns="http://www.w3.org/2000/svg" xmlns:ev="http://www.w3.org/2001/xml-events" xmlns:xlink="http://www.w3.org/1999/xlink"><defs /><path d="M 200.0,75.0 L 200.0,300.0 L 200.0,525.0" fill="none" stroke="rgb(0, 0, 0)" stroke-linejoin="round" stroke-width="20" /><path d="M 200.0,75.0 L 218.79385241571816,81.84040286651337 C 359.7477455336044,133.14342436536367 359.7477455336044,466.85657563463633 218.79385241571816,518.1595971334866 L 200.0,525.0" fill="none" stroke="rgb(0, 0, 0)" stroke-linecap="round" stroke-width="70" /><path d="M 200.0,75.0 L 218.79385241571816,81.84040286651337 C 359.7477455336044,133.14342436536367 359.7477455336044,466.85657563463633 218.79385241571816,518.1595971334866 L 200.0,525.0" fill="none" stroke="rgb(220, 130, 75)" stroke-linecap="round" stroke-width="30" /><path d="M 830.0,90.0 L 770.0,300.0 L 830.0,510.0" fill="none" stroke="rgb(0, 0, 0)" stroke-linejoin="round" stroke-width="20" /><path d="M 830.0,90.0 L 849.1862794908011,95.64682913685753 C 1001.1416130579462,140.3697159007692 1001.1416130579462,459.6302840992308 849.1862794908011,504.35317086314245 L 830.0,510.0" fill="none" stroke="rgb(0, 0, 0)" stroke-linecap="round" stroke-width="70" /><path d="M 830.0,90.0 L 849.1862794908011,95.64682913685753 C 1001.1416130579462,140.3697159007692 1001.1416130579462,459.6302840992308 849.1862794908011,504.35317086314245 L 830.0,510.0" fill="none" stroke="rgb(220, 130, 75)" stroke-linecap="round" stroke-width="30" /><path d="M 1455.0,102.5 L 1345.0,300.0 L 1455.0,497.5" fill="none" stroke="rgb(0, 0, 0)" stroke-linejoin="round" stroke-width="20" /><path d="M 1455.0,102.5 L 1474.4555175641879,107.13495806988315 C 1635.352647820022,145.4660613078168 1635.352647820022,454.5339386921832 1474.4555175641879,492.86504193011683 L 1455.0,497.5" fill="none" stroke="rgb(0, 0, 0)" stroke-linecap="round" stroke-width="70" /><path d="M 1455.0,102.5 L 1474.4555175641879,107.13495806988315 C 1635.352647820022,145.4660613078168 1635.352647820022,454.5339386921832 1474.4555175641879,492.86504193011683 L 1455.0,497.5" fill="none" stroke="rgb(220, 130, 75)" stroke-linecap="round" stroke-width="30" /></svg>