<?xml version="1.0" encoding="utf-8" ?>
<svg baseProfile="full" height="600px" version="1.1" width="1800px" xmlns="http://www.w3.org/2000/svg" xmlns:ev="http://www.w3.org/2001/xml-events" xmlns:xlink="http://www.w3.org/1999/xlink"><defs /><path d="M 200.0,90.0 L 200.0,300.0 L 200.0,510.0" fill="none" stroke="rgb(0, 0, 0)" stroke-linejoin="round" stroke-width="20" /><path d="M 200.0,90.0 L 209.39692620785908,93.4202014332567 C 350.3508193257453,144.723222932107 350.3508193257453,455.276777067893 209.39692620785908,506.5797985667433 L 200.0,510.0" fill="none" stroke="rgb(0, 0, 0)" stroke-linecap="round" stroke-width="80" /><path d="M 200.0,90.0 L 209.39692620785908,93.4202014332567 C 350.3508193257453,144.723222932107 350.3508193257453,455.276777067893 209.39692620785908,506.5797985667433 L 200.0,510.0" fill="none" stroke="rgb(220, 130, 75)" stroke-linecap="round" stroke-width="40" /><path d="M 830.0,99.0 L 770.0,300.0 L 830.0,501.0" fill="none" stroke="rgb(0, 0, 0)" stroke-linejoin="round" stroke-width="20" /><path d="M 830.0,99.0 L 839.5931397454005,101.82341456842876 C 991.5484733125456,146.54630133234042 991.5484733125456,453.4536986676596 839.5931397454005,498.17658543157125 L 830.0,501.0" fill="none" stroke="rgb(0, 0, 0)" stroke-linecap="round" stroke-width="80" /><path d="M 830.0,99.0 L 839.5931397454005,101.82341456842876 C 991.5484733125456,146.54630133234042 991.5484733125456,453.4536986676596 839.5931397454005,498.17658543157125 L 830.0,501.0" fill="none" stroke="rgb(220, 130, 75)" stroke-linecap="round" stroke-width="40" /><path d="M 1455.0,106.5 L 1345.0,300.0 L 1455.0,493.5" fill="none" stroke="rgb(0, 0, 0)" stroke-linejoin="round" stroke-width="20" /><path d="M 1455.0,106.5 L 1464.727758782094,108.81747903494157 C 1625.6248890379284,147.14858227287522 1625.6248890379284,452.8514177271248 1464.727758782094,491.1825209650584 L 1455.0,493.5" fill="none" stroke="rgb(0, 0, 0)" stroke-linecap="round" stroke-width="80" /><path d="M 1455.0,106.5 L 1464.727758782094,108.81747903494157 C 1625.6248890379284,147.14858227287522 1625.6248890379284,452.8514177271248 1464.727758782094,491.1825209650584 L 1455.0,493.5" fill="none" stroke="rgb(220, 130, 75)" stroke-linecap="round" stroke-width="40" /></svg>